<svg width="94" height="94" viewBox="0 0 94 94" fill="none" xmlns="http://www.w3.org/2000/svg">
<path d="M47 64.625C48.6223 64.625 49.9375 63.3098 49.9375 61.6875C49.9375 60.0652 48.6223 58.75 47 58.75C45.3777 58.75 44.0625 60.0652 44.0625 61.6875C44.0625 63.3098 45.3777 64.625 47 64.625Z" fill="black"/>
<path d="M82.25 55.8125V44.0625H76.375V49.9375H17.625V44.0625H11.75V55.8125H32.3125V68.7728L20.5625 75.3087V88.125H26.4375V78.7632L36.0138 73.4375H57.9892L67.5625 78.7632V88.125H73.4375V75.3087L61.6875 68.7728V55.8125H82.25ZM55.8125 67.5625H38.1875V55.8125H55.8125V67.5625ZM0 32.3125H29.375V38.1875H0V32.3125ZM64.625 32.3125H94V38.1875H64.625V32.3125ZM47 17.625C44.6857 17.6238 42.3941 18.08 40.2566 18.9672C38.1192 19.8544 36.1781 21.1553 34.545 22.795L38.6957 26.9457C39.7854 25.8538 41.0798 24.9875 42.5048 24.3964C43.9298 23.8053 45.4573 23.5011 47 23.5011C48.5427 23.5011 50.0702 23.8053 51.4952 24.3964C52.9202 24.9875 54.2146 25.8538 55.3043 26.9457L59.4579 22.7921C57.8242 21.1525 55.8826 19.852 53.7446 18.9653C51.6067 18.0786 49.3145 17.6231 47 17.625Z" fill="black"/>
<path d="M26.2373 14.4878L30.3909 18.6414C32.5708 16.4582 35.1598 14.7262 38.0096 13.5445C40.8595 12.3628 43.9144 11.7546 46.9996 11.7546C50.0847 11.7546 53.1396 12.3628 55.9895 13.5445C58.8393 14.7262 61.4283 16.4582 63.6082 18.6414L67.7618 14.4878C65.0376 11.7571 61.8014 9.59072 58.2387 8.11256C54.676 6.6344 50.8567 5.87354 46.9996 5.87354C43.1424 5.87354 39.3231 6.6344 35.7604 8.11256C32.1977 9.59072 28.9616 11.7571 26.2373 14.4878Z" fill="black"/>
</svg>
