<svg width="150" height="90" viewBox="0 0 150 90" fill="none" xmlns="http://www.w3.org/2000/svg">
<g clip-path="url(#clip0_35_221)">
<path d="M49.9454 40.0163C50.1395 39.4815 50.2315 38.9165 50.2213 38.3414C50.2315 37.726 50.1293 37.1004 49.9147 36.5253C49.5469 35.5568 48.7397 34.8202 47.7281 34.5277C47.1763 34.3561 46.6143 34.2754 46.0319 34.2855H41.9141V47.1091H44.6218V42.4377H46.1852C46.7574 42.4478 47.3296 42.3469 47.8609 42.1451C48.3412 41.9635 48.7703 41.681 49.1382 41.3178C49.4958 40.9445 49.7717 40.5006 49.9454 40.0163ZM47.1252 39.5824C46.8289 39.8246 46.4508 39.9456 46.0728 39.9456H44.6218V36.7574H46.0319C46.4406 36.7372 46.8391 36.8583 47.1559 37.1206C47.4624 37.4435 47.6055 37.8773 47.5646 38.3112C47.6157 38.7854 47.442 39.2495 47.1048 39.5824" fill="#005698"/>
<path d="M58.0688 46.9378C58.5592 46.7562 58.9986 46.4736 59.3665 46.1104C59.7445 45.7371 60.0408 45.2932 60.2248 44.7988C60.4393 44.254 60.5415 43.6688 60.5313 43.0836V38.3114C60.5313 37.8069 60.4496 37.3024 60.2759 36.8181C60.1124 36.3338 59.8569 35.8798 59.5197 35.4964C59.1621 35.0928 58.7227 34.77 58.2323 34.5581C57.6498 34.3059 57.0265 34.1848 56.393 34.1949C55.7289 34.1747 55.0647 34.3059 54.4618 34.5682C53.9611 34.8003 53.5218 35.1231 53.1641 35.5368C52.8269 35.9202 52.5817 36.3742 52.4387 36.8585C52.2956 37.3226 52.2139 37.8069 52.2139 38.2912V42.8617C52.2139 43.4166 52.2956 43.9715 52.4489 44.5062C52.5919 45.0107 52.8372 45.4849 53.1744 45.8986C53.532 46.3122 53.9714 46.6351 54.472 46.847C55.6165 47.2909 56.8937 47.3212 58.0586 46.9075M54.9216 42.9525V38.1903C54.9319 37.8472 55.0545 37.5143 55.2895 37.2621C55.4121 37.1107 55.5756 36.9896 55.7493 36.8988C55.9639 36.798 56.1989 36.7475 56.4441 36.7576C56.6791 36.7475 56.9141 36.808 57.1287 36.919C57.3024 37.0199 57.4455 37.141 57.5681 37.2923C57.6703 37.4336 57.752 37.5849 57.8031 37.7564C57.844 37.8977 57.8644 38.0389 57.8644 38.1802V43.2652C57.8848 43.6486 57.7316 44.0219 57.4455 44.2742C57.1696 44.5163 56.812 44.6374 56.4441 44.6374C55.9945 44.6979 55.5449 44.5163 55.2588 44.1733C55.0136 43.8201 54.8808 43.3863 54.891 42.9525" fill="#005698"/>
<path d="M64.1176 45.9186C64.4651 46.3323 64.9044 46.6551 65.4051 46.867C66.008 47.1192 66.6619 47.2403 67.3159 47.2302C68.2866 47.2605 69.2266 46.9578 70.0032 46.3827C70.7491 45.7975 71.2396 44.9601 71.3826 44.042L68.8077 43.3256C68.7464 44.0924 68.0924 44.6776 67.3159 44.6675C66.8765 44.7079 66.4576 44.5162 66.2021 44.1731C65.9773 43.8099 65.8547 43.3862 65.8751 42.9523V38.1902C65.8751 38.0287 65.9058 37.8774 65.9467 37.726C65.9978 37.5545 66.0795 37.4032 66.1919 37.2619C66.3145 37.1106 66.4576 36.9895 66.6313 36.8987C66.8458 36.7978 67.0911 36.7575 67.3261 36.7575C67.5611 36.7474 67.7859 36.7978 68.0005 36.8987C68.1742 36.9895 68.3275 37.1106 68.4603 37.2619C68.5829 37.3931 68.6749 37.5444 68.7362 37.716C68.7873 37.8572 68.8281 37.9985 68.8588 38.1498L71.4031 37.3931C71.3111 36.9693 71.1578 36.5658 70.9535 36.1824C70.7389 35.799 70.4528 35.4559 70.1258 35.1734C69.7682 34.8607 69.3595 34.6185 68.9099 34.4571C67.7552 34.0636 66.4984 34.104 65.3745 34.5681C64.884 34.8001 64.4446 35.123 64.087 35.5366C63.76 35.92 63.5046 36.3741 63.3615 36.8584C63.2082 37.3225 63.1367 37.8068 63.1367 38.291V42.8716C63.1367 43.4366 63.2185 43.9915 63.3717 44.5263C63.525 45.0408 63.7702 45.515 64.1176 45.9186Z" fill="#005698"/>
<path d="M76.4609 37.7263C76.512 37.5548 76.5938 37.4035 76.6959 37.2622C76.8186 37.1109 76.9718 36.9898 77.1455 36.899C77.3601 36.7981 77.5951 36.7577 77.8404 36.7577C78.0754 36.7476 78.3002 36.7981 78.5148 36.899C78.6885 36.9898 78.8417 37.1109 78.9848 37.2622C79.1074 37.3934 79.1994 37.5447 79.2504 37.7162C79.3015 37.8777 79.3424 38.029 79.3731 38.1501L81.9173 37.3934C81.8356 36.9696 81.6925 36.566 81.4882 36.1826C81.2736 35.7992 80.9977 35.4562 80.6605 35.1737C80.3029 34.8609 79.8942 34.6188 79.4548 34.4574C78.9439 34.2757 78.3921 34.1849 77.8506 34.195C77.1864 34.1749 76.5325 34.2959 75.9194 34.5583C75.4187 34.7802 74.9793 35.1132 74.6319 35.5268C74.3049 35.9102 74.0597 36.3642 73.9064 36.8485C73.7634 37.3126 73.6816 37.7969 73.6816 38.2812V42.8719C73.6816 43.4369 73.7532 43.9918 73.9064 44.5265C74.0495 45.031 74.2947 45.5052 74.6319 45.9189C74.9793 46.3325 75.4187 46.6554 75.9194 46.8673C76.5222 47.1195 77.1762 47.2406 77.8301 47.2305C78.8009 47.2608 79.7409 46.9581 80.5175 46.383C81.2634 45.8079 81.7539 44.9705 81.8969 44.0423L79.322 43.3057C79.2607 44.0624 78.6169 44.6476 77.8404 44.6476C77.4112 44.6981 76.9821 44.5165 76.7164 44.1734C76.4814 43.8102 76.369 43.3864 76.3894 42.9526V38.1904C76.3894 38.0391 76.4098 37.8777 76.4609 37.7263Z" fill="#005698"/>
<path d="M84.5029 47.1092H92.054V44.5869H87.2107V41.8628H91.3796V39.411H87.2107V36.7575H92.054V34.2856H84.5029V47.1092Z" fill="#005698"/>
<path d="M93.5454 36.7172H96.3247V47.1092H99.012V36.7172H101.791V34.2856H93.5454V36.7172Z" fill="#005698"/>
<path d="M110.436 34.2856L106.716 41.7316H106.686V34.2856H103.988V47.1092H106.533L110.15 40.1375H110.17V47.1092H112.878V34.2856H110.436Z" fill="#005698"/>
<path d="M21.3148 38.5332L10.9844 61.6883C15.2657 63.4237 20.0682 63.4438 24.3699 61.7387L21.7848 38.6038C21.6315 38.5937 21.468 38.5736 21.3148 38.5332Z" fill="#005698"/>
<path d="M20.1602 37.8369L0.725586 50.4789C2.05392 54.8577 5.04779 58.5605 9.09411 60.7902L20.4872 38.1598C20.3543 38.069 20.2317 37.958 20.1193 37.8369" fill="#005698"/>
<path d="M22.6738 38.4729L26.3114 60.8209C30.3986 58.5911 33.4334 54.8581 34.7515 50.4288L23.246 38.2207C23.0723 38.3418 22.8782 38.4326 22.6738 38.4931" fill="#005698"/>
<path d="M20.4051 34.4067L16.696 28C12.0161 28.2623 7.64285 30.3508 4.52637 33.8014L19.6183 35.5973C19.7512 35.1332 20.027 34.7195 20.4051 34.4067Z" fill="#005698"/>
<path d="M24.3086 36.3337C24.2882 36.7776 24.1451 37.2013 23.8999 37.5646L35.2623 48.1987C35.4054 47.3008 35.4769 46.3927 35.4769 45.4746C35.4769 41.8626 34.3427 38.3414 32.2276 35.3853L24.3086 36.3337Z" fill="#005698"/>
<path d="M19.5466 36.4955L3.05476 35.6479C0.500269 39.3709 -0.511312 43.9313 0.244819 48.3706L19.6794 37.0907C19.6079 36.899 19.5568 36.6972 19.5466 36.4955Z" fill="#005698"/>
<path d="M21.9686 33.872C22.9188 33.8922 23.7669 34.4673 24.1246 35.335L30.8991 33.7509C27.803 30.3508 23.4808 28.2825 18.8623 28L21.3657 33.9325C21.5599 33.8922 21.7642 33.872 21.9686 33.872Z" fill="#005698"/>
<path d="M47.1968 61.6076V56.7344H47.1457L46.5326 58.2882L45.7356 60.1043H44.7547L43.927 58.2276L43.3344 56.7344H43.3037V61.6076H41.9243V53.2939H43.222L44.3971 56.0282L45.2145 58.0359H45.2656L46.0728 56.0282L47.2377 53.3141H48.566V61.6177H47.1968V61.6076Z" fill="#005698"/>
<path d="M55.2182 59.0852C55.2284 59.4484 55.1568 59.8217 55.024 60.1647C54.9014 60.4674 54.7277 60.7499 54.4927 60.982C54.2577 61.214 53.9818 61.3855 53.6752 61.4965C53.338 61.6176 52.9906 61.6781 52.633 61.6781C52.2243 61.6882 51.8258 61.6176 51.4477 61.4562C51.131 61.325 50.8551 61.1131 50.6405 60.8609C50.4259 60.5986 50.2726 60.306 50.1909 59.9831C50.0887 59.6401 50.0479 59.287 50.0479 58.9338V55.796C50.0479 55.4934 50.0989 55.1907 50.1909 54.8981C50.2829 54.5954 50.4361 54.3129 50.6405 54.0708C50.8653 53.8185 51.131 53.6066 51.4375 53.4553C51.8156 53.2838 52.2243 53.2031 52.6432 53.2233C53.0417 53.2132 53.43 53.2939 53.7876 53.4452C54.0942 53.5865 54.3701 53.7883 54.5949 54.0405C54.8094 54.2826 54.9627 54.5651 55.0649 54.8678C55.1671 55.1705 55.2182 55.4833 55.2182 55.796V59.0852ZM53.8387 55.7759C53.8387 55.6548 53.8183 55.5337 53.7876 55.4126C53.7468 55.2714 53.6855 55.1301 53.5935 55.0091C53.5015 54.8779 53.3687 54.7669 53.2256 54.6761C53.0519 54.5752 52.8476 54.5349 52.6534 54.5349C52.4491 54.5248 52.2447 54.5651 52.071 54.6559C51.928 54.7266 51.8053 54.8375 51.7032 54.9687C51.6112 55.0898 51.5397 55.2209 51.4988 55.3723C51.4579 55.5034 51.4375 55.6447 51.4375 55.7759V58.9742C51.4273 59.3273 51.5192 59.6804 51.7134 59.9831C51.9382 60.2757 52.2958 60.4271 52.6637 60.3867C52.9702 60.3867 53.2563 60.2757 53.4811 60.0739C53.7161 59.8419 53.8387 59.5291 53.8285 59.2062L53.8387 55.7759Z" fill="#005698"/>
<path d="M61.6657 59.8421C61.5533 60.3869 61.2468 60.8712 60.7972 61.2042C60.3272 61.5371 59.7652 61.6986 59.1828 61.6885C58.7945 61.6986 58.4062 61.6279 58.0486 61.4867C57.742 61.3555 57.4662 61.1638 57.2414 60.9217C57.0166 60.6795 56.8429 60.397 56.7407 60.0843C56.6385 59.7412 56.5874 59.3982 56.5874 59.035V55.8064C56.5874 55.4835 56.6385 55.1606 56.7407 54.8479C56.8429 54.5452 57.0063 54.2627 57.2209 54.0205C57.4457 53.7784 57.7216 53.5766 58.0281 53.4455C58.396 53.2941 58.7843 53.2235 59.1726 53.2336C59.7652 53.2033 60.3578 53.395 60.8279 53.7582C61.2468 54.1013 61.5431 54.5553 61.676 55.0698L60.3885 55.5037C60.3681 55.3826 60.3272 55.2615 60.2659 55.1405C60.2046 55.0295 60.133 54.9286 60.0411 54.8378C59.9389 54.7369 59.8163 54.6663 59.6732 54.6158C59.52 54.5553 59.3667 54.5351 59.2032 54.5351C59.0193 54.5351 58.8354 54.5654 58.6617 54.6461C58.5186 54.7167 58.396 54.8075 58.2938 54.9286C58.1916 55.0396 58.1201 55.1707 58.0792 55.312C58.0281 55.4532 58.0077 55.5945 58.0077 55.7458V59.0551C58.0077 59.2267 58.0281 59.3881 58.0792 59.5495C58.1201 59.7009 58.2018 59.8421 58.304 59.9733C58.4062 60.0943 58.5288 60.1852 58.6719 60.2558C58.8354 60.3264 59.0193 60.3567 59.193 60.3567C59.4689 60.3668 59.7448 60.276 59.9593 60.1044C60.1739 59.9329 60.317 59.6807 60.3578 59.4083L61.6657 59.8421Z" fill="#005698"/>
<path d="M62.9634 61.6076V53.2939H64.353V56.7849H65.0172C65.1398 56.7849 65.2624 56.7647 65.385 56.7344C65.5179 56.7041 65.6405 56.6436 65.7529 56.5629C65.8857 56.462 65.9981 56.3409 66.0799 56.1997C66.1923 56.008 66.274 55.8062 66.3251 55.5943L66.9484 53.3141H68.2767L67.6534 55.7658C67.5717 56.1291 67.4184 56.4721 67.2038 56.7748C67.0404 57.0169 66.8053 57.2086 66.5192 57.3095C66.8258 57.4104 67.1017 57.6122 67.2856 57.8745C67.4899 58.1873 67.633 58.5303 67.7147 58.8935L68.4198 61.6076H67.0097L66.4171 59.2568C66.3557 58.8734 66.1718 58.5303 65.8857 58.2579C65.6507 58.0864 65.3748 58.0057 65.0887 58.0057H64.3632V61.5975L62.9634 61.6076Z" fill="#005698"/>
<path d="M74.4584 59.0852C74.4584 59.4484 74.3971 59.8217 74.2642 60.1647C74.1416 60.4674 73.9679 60.7499 73.7329 60.982C73.4979 61.214 73.222 61.3855 72.9155 61.4965C72.5783 61.6176 72.2309 61.6781 71.8732 61.6781C71.4645 61.6882 71.066 61.6176 70.688 61.4562C70.3712 61.325 70.0953 61.1131 69.8807 60.8609C69.6764 60.5986 69.5231 60.306 69.4311 59.9831C69.329 59.6401 69.2881 59.287 69.2881 58.9338V55.796C69.2881 55.4934 69.3392 55.1907 69.4311 54.8981C69.5231 54.5954 69.6764 54.3129 69.8807 54.0708C70.1055 53.8185 70.3712 53.6066 70.6777 53.4553C71.0558 53.2838 71.4645 53.2031 71.8835 53.2233C72.282 53.2132 72.6702 53.2939 73.0279 53.4452C73.3344 53.5865 73.6103 53.7883 73.8351 54.0405C74.0497 54.2826 74.2132 54.555 74.3051 54.8678C74.4073 55.1705 74.4584 55.4833 74.4584 55.796V59.0852ZM73.0585 55.7759C73.0585 55.6548 73.0381 55.5337 73.0074 55.4126C72.9666 55.2714 72.9053 55.1402 72.8133 55.0091C72.7213 54.8779 72.5885 54.7669 72.4454 54.6761C72.2717 54.5752 72.0674 54.5349 71.8732 54.5349C71.6689 54.5248 71.4645 54.5651 71.2908 54.6559C71.1478 54.7367 71.0251 54.8375 70.923 54.9687C70.831 55.0898 70.7697 55.231 70.7186 55.3723C70.6777 55.5034 70.6573 55.6447 70.6573 55.7759V58.9742C70.6471 59.3273 70.739 59.6804 70.9332 59.9831C71.158 60.2656 71.5156 60.4271 71.8732 60.3867C72.1798 60.3867 72.4659 60.2757 72.6907 60.0739C72.9359 59.852 73.0687 59.5291 73.0585 59.2062V55.7759Z" fill="#005698"/>
<path d="M81.0798 59.146C81.1309 59.822 80.8958 60.4778 80.436 60.9722C79.966 61.406 79.3427 61.6381 78.699 61.6078H75.9912V53.2942H78.5764C79.2303 53.2437 79.8843 53.4657 80.3747 53.9096C80.7937 54.3636 81.0082 54.9589 80.9776 55.5744C80.9776 55.9073 80.9061 56.2403 80.7528 56.5429C80.5791 56.8658 80.293 57.1281 79.9456 57.2593V57.3198C80.1397 57.3803 80.3134 57.4712 80.4667 57.6023C80.6097 57.7234 80.7324 57.8747 80.8345 58.0362C80.9265 58.2077 80.998 58.3893 81.0389 58.581C81.0695 58.7525 81.0798 58.9543 81.0798 59.146ZM79.6084 55.6046C79.6288 55.312 79.5266 55.0295 79.3325 54.8176C79.0873 54.6058 78.7705 54.5049 78.4537 54.5351H77.3604V56.7145H78.4537C78.7705 56.7447 79.0873 56.6337 79.3223 56.4118C79.5164 56.1797 79.6186 55.8972 79.6084 55.6046ZM79.731 59.0653C79.7412 58.7626 79.6492 58.4599 79.4653 58.2178C79.2405 57.9857 78.9136 57.8646 78.5764 57.8949H77.3604V60.3365H78.5866C78.7705 60.3466 78.9544 60.3063 79.1281 60.2356C79.2712 60.1751 79.3938 60.0843 79.496 59.9632C79.5879 59.8422 79.6493 59.711 79.6901 59.5597C79.7208 59.3982 79.731 59.2267 79.731 59.0653Z" fill="#005698"/>
<path d="M87.4456 59.8418C87.3332 60.3866 87.0266 60.8709 86.577 61.2039C86.107 61.5368 85.545 61.6982 84.9728 61.6881C84.5845 61.6982 84.1962 61.6276 83.8386 61.4864C83.2153 61.2341 82.7453 60.7196 82.5409 60.0839C82.4285 59.7409 82.3774 59.3979 82.3774 59.0346V55.806C82.3774 55.4832 82.4285 55.1603 82.5409 54.8476C82.7453 54.222 83.2051 53.7075 83.8182 53.4552C84.186 53.3039 84.5743 53.2333 84.9728 53.2433C85.5654 53.2131 86.1581 53.4048 86.6281 53.768C87.0368 54.111 87.3332 54.5651 87.466 55.0796L86.1479 55.5135C86.1274 55.3924 86.0866 55.2713 86.0253 55.1502C85.964 55.0393 85.8924 54.9384 85.8005 54.8476C85.6983 54.7467 85.5757 54.676 85.4326 54.6256C85.2793 54.5651 85.1261 54.5449 84.9626 54.5449C84.7787 54.5348 84.5947 54.5751 84.421 54.6559C84.278 54.7265 84.1554 54.8173 84.0532 54.9384C83.951 55.0493 83.8795 55.1805 83.8386 55.3218C83.7875 55.463 83.7671 55.6043 83.7671 55.7556V59.0649C83.7671 59.2364 83.7875 59.3979 83.8386 59.5593C83.8795 59.7106 83.9612 59.8519 84.0634 59.983C84.1656 60.1041 84.2882 60.1949 84.4313 60.2655C84.5947 60.3362 84.7787 60.3664 84.9626 60.3664C85.2385 60.3765 85.5041 60.2857 85.7187 60.1142C85.9333 59.9427 86.0763 59.6904 86.1172 59.418L87.4456 59.8418Z" fill="#005698"/>
<path d="M88.7534 61.6076V53.2939H90.1431V56.7849H90.8072C90.9299 56.7849 91.0525 56.7647 91.1751 56.7344C91.3079 56.7041 91.4305 56.6436 91.5429 56.5629C91.6758 56.462 91.7882 56.3409 91.8699 56.1997C91.9823 56.008 92.064 55.8062 92.1151 55.5943L92.7384 53.3141H94.0668L93.4128 55.7658C93.3311 56.1291 93.1778 56.4721 92.9632 56.7748C92.7997 57.0169 92.5647 57.2086 92.2888 57.3095C92.6056 57.4104 92.8815 57.6021 93.0756 57.8745C93.28 58.1873 93.4333 58.5303 93.5048 58.8935L94.2098 61.6076H92.7997L92.1969 59.2467C92.1356 58.8633 91.9516 58.5101 91.6655 58.2377C91.4305 58.0662 91.1546 57.9855 90.8685 57.9855H90.1431V61.5773L88.7534 61.6076Z" fill="#005698"/>
<path d="M95.4155 61.6077V53.2941H96.7847V58.8634H96.8052H96.8256C97.0095 58.5002 97.1935 58.1774 97.3569 57.8343C97.5204 57.4913 97.6839 57.1482 97.8576 56.8052L98.767 55.0497C99.0633 54.4645 99.3699 53.8793 99.6662 53.2739H100.943V61.6077H99.564V56.1797H99.5436C99.4108 56.442 99.2677 56.7043 99.1349 56.9767C99.002 57.2491 98.859 57.5115 98.7262 57.7738L96.7439 61.5977H95.4155V61.6077Z" fill="#005698"/>
<path d="M102.578 61.6075V53.2939H103.947V58.8632H103.968H103.988C104.172 58.5 104.356 58.1771 104.509 57.8341C104.673 57.491 104.847 57.148 105.01 56.805L105.919 55.0494C106.216 54.4642 106.512 53.879 106.819 53.2737H108.106V61.6075H106.727V56.1794H106.706C106.563 56.4417 106.43 56.7041 106.297 56.9765C106.165 57.2489 106.022 57.5112 105.889 57.7735L103.906 61.5974L102.578 61.6075ZM105.357 52.7591C105.061 52.7692 104.765 52.7087 104.499 52.5775C104.285 52.4665 104.09 52.3152 103.947 52.1336C103.814 51.9621 103.702 51.7704 103.641 51.5585C103.579 51.3769 103.539 51.1751 103.528 50.9834H104.571C104.581 51.0742 104.601 51.165 104.632 51.2558C104.673 51.3466 104.724 51.4374 104.785 51.5181C104.857 51.5988 104.938 51.6594 105.03 51.7199C105.133 51.7704 105.235 51.8006 105.347 51.7905C105.46 51.7905 105.582 51.7704 105.684 51.7199C105.776 51.6695 105.858 51.5988 105.93 51.5181C105.991 51.4374 106.042 51.3567 106.073 51.2558C106.103 51.165 106.124 51.0742 106.124 50.9834H107.156C107.135 51.1751 107.094 51.3668 107.033 51.5585C106.962 51.7704 106.859 51.9621 106.727 52.1336C106.584 52.3152 106.389 52.4665 106.185 52.5775C105.93 52.7087 105.644 52.7692 105.357 52.7591Z" fill="#005698"/>
<path d="M118.069 55.857C118.069 56.2 118.018 56.533 117.916 56.8558C117.814 57.1585 117.66 57.4309 117.446 57.663C117.231 57.9051 116.965 58.0867 116.659 58.2078C116.311 58.349 115.944 58.4096 115.566 58.4096H114.339V61.5978H112.96V53.2842H115.504C115.862 53.2842 116.23 53.3346 116.567 53.4456C117.19 53.6373 117.681 54.1115 117.895 54.7169C118.028 55.0801 118.079 55.4736 118.069 55.857ZM116.7 55.8267C116.72 55.4837 116.618 55.1507 116.393 54.8783C116.148 54.6462 115.811 54.5252 115.474 54.5554H114.329V57.1282H115.494C115.841 57.1484 116.179 57.0172 116.414 56.765C116.618 56.4926 116.72 56.1596 116.7 55.8267Z" fill="#005698"/>
<path d="M119.315 61.6076V53.2939H124.005V54.5652H120.705V56.7849H123.546V58.0259H120.705V60.3363H124.005V61.6278L119.315 61.6076Z" fill="#005698"/>
<path d="M126.672 54.5551V61.6076H125.293V53.2939H129.932V54.5652H126.672V54.5551Z" fill="#005698"/>
<path d="M131.158 61.6077V53.2941H132.527V58.8634H132.548H132.568C132.752 58.5002 132.936 58.1774 133.1 57.8343C133.263 57.4913 133.427 57.1482 133.6 56.8052L134.51 55.0497C134.806 54.4645 135.113 53.8793 135.409 53.2739H136.686V61.6077H135.307V56.1797H135.286C135.153 56.442 135.01 56.7043 134.878 56.9767C134.745 57.2491 134.602 57.5115 134.469 57.7738L132.487 61.5977L131.158 61.6077Z" fill="#005698"/>
<path d="M143.317 59.0852C143.328 59.4484 143.256 59.8217 143.133 60.1647C143.011 60.4674 142.837 60.7499 142.602 60.982C142.367 61.2039 142.091 61.3855 141.785 61.4965C141.447 61.6176 141.1 61.6781 140.742 61.6781C140.334 61.6882 139.935 61.6176 139.557 61.4562C139.24 61.325 138.964 61.1131 138.75 60.8609C138.546 60.5986 138.392 60.306 138.3 59.9831C138.198 59.6401 138.157 59.287 138.157 58.9338V55.796C138.157 55.4934 138.208 55.1907 138.3 54.8981C138.392 54.5954 138.546 54.3129 138.75 54.0708C138.975 53.8185 139.24 53.6066 139.547 53.4553C139.925 53.2838 140.334 53.2031 140.753 53.2233C141.151 53.2132 141.539 53.2939 141.897 53.4452C142.204 53.5865 142.479 53.7883 142.704 54.0405C142.919 54.2826 143.082 54.555 143.174 54.8678C143.276 55.1705 143.328 55.4833 143.328 55.796L143.317 59.0852ZM141.917 55.7759C141.917 55.6548 141.897 55.5337 141.866 55.4126C141.825 55.2714 141.764 55.1402 141.672 55.0091C141.58 54.8779 141.447 54.7669 141.304 54.6761C141.141 54.5853 140.957 54.5349 140.763 54.5349C140.558 54.5248 140.354 54.5651 140.17 54.6559C140.027 54.7367 139.904 54.8375 139.802 54.9687C139.71 55.0898 139.649 55.231 139.598 55.3723C139.557 55.5034 139.537 55.6447 139.537 55.7759V58.9742C139.526 59.3273 139.618 59.6704 139.802 59.973C140.017 60.2656 140.385 60.4271 140.753 60.3968C141.059 60.3968 141.345 60.2858 141.57 60.084C141.805 59.852 141.928 59.5392 141.917 59.2163V55.7759Z" fill="#005698"/>
<path d="M148.621 61.6076V58.0158H146.25V61.6076H144.86V53.2939H146.25V56.7849H148.621V53.2939H150V61.6076H148.621Z" fill="#005698"/>
</g>
<defs>
<clipPath id="clip0_35_221">
<rect width="150" height="35" fill="white" transform="translate(0 28)"/>
</clipPath>
</defs>
</svg>