<svg width="150" height="90" viewBox="0 0 150 90" fill="none" xmlns="http://www.w3.org/2000/svg">
<g clip-path="url(#clip0_35_263)">
<path d="M28.2051 29.0269C28.2051 29.0269 27.1951 30.4261 25.833 32.4833L26.5019 33.4099C26.6027 33.5501 28.8332 36.6463 31.1562 40.4359L33.047 43.6052C35.3343 47.7278 36.4468 50.7195 36.4468 52.7517C36.4468 54.8953 35.784 56.9352 34.6231 58.6705C37.6859 57.1774 39.7823 54.1727 39.7823 50.7026C39.7823 45.7459 28.2051 29.0269 28.2051 29.0269Z" fill="#17AD49"/>
<path d="M24.6 34.626C24.6 34.626 27.2131 38.2457 29.7033 42.4062C28.5377 44.0579 24.4859 49.9207 22.1625 54.8017L22.2674 54.6411C21.9436 55.2642 21.7622 55.9643 21.7622 56.704C21.7622 59.3014 23.9991 61.4071 26.7589 61.4071C26.9881 61.4071 27.2124 61.3914 27.433 61.3631C26.538 61.6251 25.5862 61.7662 24.6 61.7662C23.1446 61.7662 21.7656 61.4574 20.5312 60.9086C17.3006 59.4716 15.064 56.3776 15.064 52.7908C15.064 47.8344 24.6 34.626 24.6 34.626Z" fill="#FAB20B"/>
<path d="M31.0463 44.6201C29.8412 46.342 27.5164 49.7626 25.5583 53.2233L25.5436 53.1779C24.8383 54.5038 23.4854 55.4693 21.8773 55.7143C21.8047 56.034 21.7622 56.364 21.7622 56.7038C21.7622 59.3015 23.9995 61.4069 26.7586 61.4069C26.8911 61.4069 27.0218 61.4 27.1515 61.3903C31.1705 60.3479 34.1312 56.893 34.1493 52.7767C34.1578 50.8737 32.7648 47.7483 31.0463 44.6201Z" fill="#393536"/>
<path d="M46.0035 46.5851C46.146 46.5851 46.5009 46.5737 46.7376 46.37C46.868 46.2451 46.9745 46.0522 46.9745 45.8371C46.9745 45.633 46.9038 45.4404 46.7733 45.3042C46.5364 45.0777 46.1932 45.0663 46.0035 45.0663H45.0803V46.5851H46.0035ZM45.8616 43.3662C46.6193 43.3662 47.5073 43.3551 48.2529 43.7632C48.774 44.0464 49.4603 44.6357 49.4603 45.8143C49.4603 46.0411 49.4253 46.6304 49.0816 47.163C48.3596 48.2509 47.1167 48.3304 46.2522 48.3304H45.0803V51.1412H42.5942V43.3662H45.8616Z" fill="#393536"/>
<path d="M52.5836 43.3667L54.0395 46.4382H54.0635L55.3891 43.3667H57.5792L55.0577 48.8638C54.6316 49.7819 54.3946 50.2124 54.0987 50.5182C53.5304 51.1192 52.8441 51.2551 52.0743 51.2551C51.7784 51.2551 51.3407 51.2212 50.8434 51.1192V49.3852C50.9378 49.4077 51.3877 49.5101 51.8376 49.5101C51.9916 49.5101 52.2047 49.4983 52.4177 49.3507C52.5359 49.2718 52.6544 49.1587 52.7373 48.9658L49.8369 43.3667H52.5836Z" fill="#393536"/>
<path d="M62.6981 46.438C62.6981 46.234 62.6626 45.8374 62.5441 45.5766C62.4377 45.3498 62.1772 44.9763 61.6089 44.9763C61.1 44.9763 60.7919 45.2481 60.5909 45.7924C60.425 46.2454 60.4015 46.7216 60.4015 47.2652C60.4015 47.8998 60.425 48.3991 60.6262 48.8294C60.8276 49.2716 61.1355 49.5099 61.6089 49.5099C62.0823 49.5099 62.3429 49.2831 62.5206 48.9656C62.6626 48.7049 62.7453 48.4441 62.7453 48.1495L65.0179 48.2857C64.9472 49.2488 64.4856 49.9515 64.036 50.371C63.4794 50.8925 62.6746 51.2549 61.5379 51.2549C59.561 51.2549 58.6372 50.2012 58.2231 49.4304C57.856 48.7505 57.75 48.0022 57.75 47.322C57.75 46.0525 58.0931 44.9082 59.0756 44.0806C59.8926 43.4007 60.7566 43.2534 61.5379 43.2534C62.2952 43.2534 63.3139 43.4122 64.0952 44.1712C64.5328 44.5907 64.9944 45.3162 65.0179 46.3246L62.6981 46.438Z" fill="#393536"/>
<path d="M68.8371 49.4425H70.0448C70.2462 49.4425 70.4944 49.4425 70.7193 49.227C70.8378 49.1136 70.9205 48.9549 70.9205 48.7398C70.9205 48.4901 70.8143 48.3431 70.7313 48.2636C70.5181 48.0599 70.2342 48.0371 70.0448 48.0371H68.8371V49.4425ZM68.8371 46.382H69.8908C70.1158 46.382 70.4002 46.3709 70.5891 46.1897C70.7433 46.0421 70.7668 45.8498 70.7668 45.7135C70.7668 45.5434 70.7313 45.385 70.5656 45.2488C70.3644 45.0786 70.0923 45.0672 69.8436 45.0672H68.8371V46.382ZM70.4829 43.3672C71.2284 43.3672 71.998 43.4014 72.5898 43.9112C72.8977 44.1719 73.2056 44.6256 73.2056 45.3283C73.2056 45.7018 73.0994 46.0988 72.874 46.4162C72.732 46.6203 72.4124 46.9491 71.8323 47.0961V47.1189C72.1992 47.187 72.5188 47.334 72.7792 47.5381C73.2414 47.9008 73.4068 48.3542 73.4068 48.9438C73.4068 49.7257 73.0752 50.2358 72.7675 50.519C72.1757 51.0633 71.3469 51.1425 70.7313 51.1425H66.3511V43.3672H70.4829Z" fill="#393536"/>
<path d="M77.3366 49.3958H78.4496C78.6273 49.3958 78.8405 49.3848 79.0296 49.1918C79.1719 49.0448 79.2071 48.8744 79.2071 48.7045C79.2071 48.5344 79.1836 48.3871 79.0416 48.2287C78.8639 48.0243 78.6628 47.9904 78.4496 47.9904H77.3366V49.3958ZM77.3366 43.3662V46.2904H78.9824C79.5982 46.2904 80.6042 46.3585 81.2315 47.1629C81.3615 47.3331 81.6931 47.7978 81.6931 48.6253C81.6931 49.3619 81.4685 50.0307 81.0066 50.4727C80.3795 51.0848 79.5505 51.1412 78.9112 51.1412H74.8506V43.3662H77.3366Z" fill="#393536"/>
<path d="M88.9896 43.3662V45.1793H85.3666V46.3354H88.2791V48.0132H85.3666V49.2824H88.9896V51.1412H82.8809V43.3662H88.9896Z" fill="#393536"/>
<path d="M95.6787 43.3662V45.1793H93.9981V51.1412H91.5118V45.1793H89.8306V43.3662H95.6787Z" fill="#393536"/>
<path d="M103.608 43.3662V51.1412H101.122V45.1793H99.2036V51.1412H96.7178V43.3662H103.608Z" fill="#393536"/>
<path d="M111.494 43.3662V45.1793H107.871V46.3354H110.783V48.0132H107.871V49.2824H111.494V51.1412H105.385V43.3662H111.494Z" fill="#393536"/>
<path d="M118.183 43.3662V45.1793H116.502V51.1412H114.016V45.1793H112.334V43.3662H118.183Z" fill="#393536"/>
<path d="M122.632 46.5851C122.774 46.5851 123.129 46.5737 123.365 46.37C123.496 46.2451 123.603 46.0522 123.603 45.8371C123.603 45.633 123.532 45.4404 123.401 45.3042C123.164 45.0777 122.821 45.0663 122.632 45.0663H121.708V46.5851H122.632ZM122.489 43.3662C123.247 43.3662 124.135 43.3551 124.881 43.7632C125.402 44.0464 126.088 44.6357 126.088 45.8143C126.088 46.0411 126.053 46.6304 125.71 47.163C124.988 48.2509 123.745 48.3304 122.88 48.3304H121.708V51.1412H119.222V43.3662H122.489Z" fill="#393536"/>
<path d="M129.948 45.5875C129.888 45.701 129.675 46.1543 129.675 47.2084C129.675 48.2738 129.888 48.75 129.948 48.8634C130.184 49.3504 130.539 49.5094 130.895 49.5094C131.25 49.5094 131.605 49.3504 131.841 48.8634C131.901 48.75 132.114 48.2738 132.114 47.2084C132.114 46.1543 131.901 45.701 131.841 45.5875C131.605 45.1228 131.25 44.953 130.895 44.953C130.539 44.953 130.184 45.1228 129.948 45.5875ZM133.523 44.1483C134.233 44.7603 134.766 45.814 134.766 47.2537C134.766 48.4325 134.387 49.5094 133.712 50.2007C133.191 50.7332 132.291 51.2547 130.895 51.2547C129.817 51.2547 128.977 50.9826 128.267 50.3363C127.414 49.5661 127.023 48.5346 127.023 47.2537C127.023 45.5194 127.757 44.5563 128.421 44.0348C129.012 43.5704 129.817 43.2529 130.895 43.2529C132.386 43.2529 133.215 43.8875 133.523 44.1483Z" fill="#393536"/>
<path d="M44.361 57.4277C44.3066 57.0908 44.1128 56.8913 43.7411 56.8913C43.1952 56.8913 43.0216 57.39 43.0216 57.8364C43.0216 58.2685 43.1309 58.8005 43.736 58.8005C44.0337 58.8005 44.2865 58.5912 44.361 58.2069H44.7877C44.743 58.6056 44.4902 59.1661 43.7212 59.1661C42.9871 59.1661 42.5503 58.6342 42.5503 57.9077C42.5503 57.1333 42.9422 56.5112 43.8054 56.5112C44.4953 56.5112 44.7529 56.9911 44.7877 57.4277H44.361Z" fill="#4F4C4D"/>
<path d="M46.4604 58.8002C47.0906 58.8002 47.2244 58.1732 47.2244 57.8361C47.2244 57.4988 47.0906 56.8767 46.4604 56.8767C45.8303 56.8767 45.6965 57.4988 45.6965 57.8361C45.6965 58.1732 45.8303 58.8002 46.4604 58.8002ZM46.4604 56.5112C47.2989 56.5112 47.6758 57.1903 47.6758 57.8361C47.6758 58.4819 47.2989 59.1659 46.4604 59.1659C45.622 59.1659 45.2451 58.4819 45.2451 57.8361C45.2451 57.1903 45.622 56.5112 46.4604 56.5112Z" fill="#4F4C4D"/>
<path d="M48.7828 58.7441H49.5717C49.9138 58.7441 50.1022 58.6349 50.1022 58.3547C50.1022 58.0841 49.8842 57.9558 49.5273 57.9558H48.7828V58.7441ZM48.7828 57.6234H49.4228C49.8048 57.6234 49.9488 57.5187 49.9488 57.2433C49.9488 57.0438 49.8199 56.9345 49.4328 56.9345H48.7828V57.6234ZM48.3413 56.583H49.5319C50.1122 56.583 50.3902 56.8773 50.3902 57.2244C50.3902 57.5236 50.1768 57.704 49.9488 57.7656C50.2263 57.8272 50.5439 57.9983 50.5439 58.4305C50.5439 58.8295 50.2069 59.0954 49.5819 59.0954H48.3413V56.583Z" fill="#4F4C4D"/>
<path d="M51.8277 56.583L52.6365 58.5542L53.4449 56.583H54.0551V59.0954H53.6234V57.6373C53.6234 57.3713 53.6486 57.0959 53.6486 57.0959H53.6134L52.79 59.0954H52.4726L51.6492 57.0959H51.6145C51.6145 57.0959 51.639 57.3713 51.639 57.6373V59.0954H51.2075V56.583H51.8277Z" fill="#4F4C4D"/>
<path d="M56.6502 57.6425C56.6254 57.2529 56.4518 56.8918 55.911 56.8918C55.5091 56.8918 55.1918 57.2529 55.1918 57.6425H56.6502ZM57.0669 58.3074C56.9678 58.6968 56.6948 59.1671 55.8863 59.1671C55.1522 59.1671 54.7202 58.6352 54.7202 57.9085C54.7202 57.1245 55.1073 56.5122 55.9759 56.5122C56.7296 56.5122 57.1016 57.0915 57.1016 57.9794H55.1918C55.1918 58.4973 55.4448 58.8014 55.9506 58.8014C56.3624 58.8014 56.6254 58.4924 56.6254 58.3074H57.0669Z" fill="#4F4C4D"/>
<path d="M59.4328 57.4277C59.3784 57.0908 59.1846 56.8913 58.8129 56.8913C58.2672 56.8913 58.0936 57.39 58.0936 57.8364C58.0936 58.2685 58.2029 58.8005 58.8077 58.8005C59.1057 58.8005 59.3585 58.5912 59.4328 58.2069H59.8597C59.8147 58.6056 59.5617 59.1661 58.7932 59.1661C58.0589 59.1661 57.6226 58.6342 57.6226 57.9077C57.6226 57.1333 58.0142 56.5112 58.8772 56.5112C59.5668 56.5112 59.8247 56.9911 59.8597 57.4277H59.4328Z" fill="#4F4C4D"/>
<path d="M62.4111 56.583V56.9345H61.5481V59.0954H61.1064V56.9345H60.2432V56.583H62.4111Z" fill="#4F4C4D"/>
<path d="M63.4038 57.5948H64.6291V56.583H65.0706V59.0952H64.6291V57.946H63.4038V59.0952H62.9624V56.583H63.4038V57.5948Z" fill="#4F4C4D"/>
<path d="M67.4761 57.8124C67.4067 57.8645 67.2974 57.9026 66.7518 57.9691C66.5332 57.9975 66.1863 58.0547 66.1863 58.3729C66.1863 58.6482 66.3397 58.8146 66.6673 58.8146C67.0791 58.8146 67.4761 58.5631 67.4761 58.2258V57.8124ZM65.8638 57.347C65.8638 56.7439 66.2953 56.5112 66.9451 56.5112C67.1537 56.5112 67.9176 56.5684 67.9176 57.214V58.6482C67.9176 58.753 67.9722 58.8051 68.0616 58.8051C68.1012 58.8051 68.1555 58.7958 68.2053 58.786V59.095C68.1308 59.1138 68.0662 59.1422 67.9671 59.1422C67.5752 59.1422 67.5208 58.9474 67.5007 58.7577C67.3273 58.9332 67.0643 59.1659 66.5532 59.1659C66.0721 59.1659 65.7349 58.8765 65.7349 58.4394C65.7349 58.1402 65.8143 57.6983 66.7367 57.6318C67.4264 57.5797 67.4761 57.5276 67.4761 57.2661C67.4761 56.9908 67.2829 56.8627 66.8657 56.8627C66.3647 56.8627 66.2953 57.1571 66.2708 57.347H65.8638Z" fill="#4F4C4D"/>
<path d="M70.3341 56.9345H69.6447C69.322 56.9345 69.1535 57.0673 69.1535 57.3193C69.1535 57.5803 69.322 57.7038 69.6447 57.7038H70.3341V56.9345ZM70.7756 59.0954H70.3341V58.0362H69.7737L69.1535 59.0954H68.6528L69.3024 58.0223C69.0593 57.9744 68.7121 57.7419 68.7121 57.3144C68.7121 56.8394 69.069 56.583 69.6598 56.583H70.7756V59.0954Z" fill="#4F4C4D"/>
<path d="M73.5782 57.6754L74.7044 56.583H75.2648L74.2629 57.519L75.3243 59.0954H74.7986L73.9504 57.8133L73.5782 58.1457V59.0954H73.1367V56.583H73.5782V57.6754Z" fill="#4F4C4D"/>
<path d="M76.7876 58.8002C77.4177 58.8002 77.5515 58.1732 77.5515 57.8361C77.5515 57.4988 77.4177 56.8767 76.7876 56.8767C76.1575 56.8767 76.0237 57.4988 76.0237 57.8361C76.0237 58.1732 76.1575 58.8002 76.7876 58.8002ZM76.7876 56.5112C77.6261 56.5112 78.0029 57.1903 78.0029 57.8361C78.0029 58.4819 77.6261 59.1659 76.7876 59.1659C75.9491 59.1659 75.5723 58.4819 75.5723 57.8361C75.5723 57.1903 75.9491 56.5112 76.7876 56.5112Z" fill="#4F4C4D"/>
<path d="M79.2879 56.583L80.0965 58.5542L80.9053 56.583H81.5153V59.0954H81.0838V57.6373C81.0838 57.3713 81.1086 57.0959 81.1086 57.0959H81.0738L80.2504 59.0954H79.9331L79.1097 57.0959H79.0749C79.0749 57.0959 79.0995 57.3713 79.0995 57.6373V59.0954H78.668V56.583H79.2879Z" fill="#4F4C4D"/>
<path d="M84.4346 56.583V59.0954H83.9929V56.9345H82.7679V59.0954H82.3262V56.583H84.4346Z" fill="#4F4C4D"/>
<path d="M86.8404 57.8124C86.771 57.8645 86.6619 57.9026 86.1158 57.9691C85.8978 57.9975 85.5505 58.0547 85.5505 58.3729C85.5505 58.6482 85.7042 58.8146 86.0318 58.8146C86.4434 58.8146 86.8404 58.5631 86.8404 58.2258V57.8124ZM85.2281 57.347C85.2281 56.7439 85.6593 56.5112 86.3093 56.5112C86.5179 56.5112 87.2818 56.5684 87.2818 57.214V58.6482C87.2818 58.753 87.3362 58.8051 87.4258 58.8051C87.4654 58.8051 87.5198 58.7958 87.5696 58.786V59.095C87.495 59.1138 87.4302 59.1422 87.3311 59.1422C86.9395 59.1422 86.8848 58.9474 86.8649 58.7577C86.6916 58.9332 86.4283 59.1659 85.9174 59.1659C85.4364 59.1659 85.0991 58.8765 85.0991 58.4394C85.0991 58.1402 85.1783 57.6983 86.101 57.6318C86.7906 57.5797 86.8404 57.5276 86.8404 57.2661C86.8404 56.9908 86.6469 56.8627 86.2299 56.8627C85.7287 56.8627 85.6593 57.1571 85.6348 57.347H85.2281Z" fill="#4F4C4D"/>
<path d="M88.6324 57.5948H89.8579V56.583H90.2991V59.0952H89.8579V57.946H88.6324V59.0952H88.1909V56.583H88.6324V57.5948Z" fill="#4F4C4D"/>
<path d="M91.5484 58.4638H91.5583L92.8434 56.583H93.3045V59.0954H92.8628V57.2149H92.8531L91.5686 59.0954H91.1069V56.583H91.5484V58.4638Z" fill="#4F4C4D"/>
<path d="M95.6207 56.9345H94.9314C94.6086 56.9345 94.4401 57.0673 94.4401 57.3193C94.4401 57.5803 94.6086 57.7038 94.9314 57.7038H95.6207V56.9345ZM96.0622 59.0954H95.6207V58.0362H95.0603L94.4401 59.0954H93.9395L94.589 58.0223C94.3459 57.9744 93.9987 57.7419 93.9987 57.3144C93.9987 56.8394 94.3556 56.583 94.9464 56.583H96.0622V59.0954Z" fill="#4F4C4D"/>
</g>
<defs>
<clipPath id="clip0_35_263">
<rect width="120" height="33" fill="white" transform="translate(15 29)"/>
</clipPath>
</defs>
</svg>