<svg width="36" height="36" viewBox="0 0 36 36" fill="none" xmlns="http://www.w3.org/2000/svg">
<path d="M15.6087 0.0445963C7.00161 0.0445963 0 7.04621 0 15.6533C0 24.2604 7.00161 31.262 15.6087 31.262C18.2399 31.262 20.8265 30.6376 23.0117 29.4335C23.1867 29.6442 23.3808 29.8382 23.5914 30.0133L28.051 34.4729C28.4628 34.9363 28.965 35.3106 29.5267 35.5728C30.0884 35.8351 30.6977 35.9798 31.3173 35.998C31.937 36.0163 32.5538 35.9077 33.1299 35.6789C33.7061 35.4501 34.2294 35.106 34.6677 34.6677C35.106 34.2293 35.4501 33.7061 35.6789 33.1299C35.9077 32.5538 36.0163 31.937 35.998 31.3173C35.9798 30.6977 35.8351 30.0883 35.5728 29.5267C35.3106 28.965 34.9363 28.4628 34.4729 28.051L30.0133 23.5914C29.796 23.3741 29.5569 23.1798 29.2997 23.0117C30.5038 20.8265 31.262 18.2845 31.262 15.6087C31.262 7.00161 24.2604 0 15.6533 0L15.6087 0.0445963ZM15.6087 4.50422C21.8076 4.50422 26.7578 9.45441 26.7578 15.6533C26.7578 18.5966 25.6874 21.317 23.8144 23.3238C23.7698 23.3684 23.7252 23.413 23.6806 23.4576C23.47 23.6327 23.2759 23.8267 23.1009 24.0374C21.1386 25.8212 18.4629 26.8469 15.5641 26.8469C9.36522 26.8469 4.41503 21.8968 4.41503 15.6979C4.41503 9.499 9.36522 4.54882 15.5641 4.54882L15.6087 4.50422Z" fill="#1C1919"/>
</svg>
